<svg width="383" height="55" viewBox="0 0 383 55" fill="none" xmlns="http://www.w3.org/2000/svg">
<path d="M13.25 5.9C16.95 5.9 20.1833 6.63333 22.95 8.1C25.7167 9.56667 27.85 11.6333 29.35 14.3C30.8833 16.9333 31.65 19.9833 31.65 23.45C31.65 26.8833 30.8833 29.9333 29.35 32.6C27.85 35.2667 25.7 37.3333 22.9 38.8C20.1333 40.2667 16.9167 41 13.25 41H0.1V5.9H13.25ZM12.7 33.6C15.9333 33.6 18.45 32.7167 20.25 30.95C22.05 29.1833 22.95 26.6833 22.95 23.45C22.95 20.2167 22.05 17.7 20.25 15.9C18.45 14.1 15.9333 13.2 12.7 13.2H8.65V33.6H12.7ZM40.7281 10.2C39.2281 10.2 37.9948 9.76666 37.0281 8.9C36.0948 8 35.6281 6.9 35.6281 5.6C35.6281 4.26667 36.0948 3.16666 37.0281 2.3C37.9948 1.4 39.2281 0.949997 40.7281 0.949997C42.1948 0.949997 43.3948 1.4 44.3281 2.3C45.2948 3.16666 45.7781 4.26667 45.7781 5.6C45.7781 6.9 45.2948 8 44.3281 8.9C43.3948 9.76666 42.1948 10.2 40.7281 10.2ZM44.9781 13.1V41H36.4281V13.1H44.9781ZM61.7742 12.7C63.7409 12.7 65.4576 13.1 66.9242 13.9C68.4242 14.7 69.5742 15.75 70.3742 17.05V13.1H78.9242V40.95C78.9242 43.5167 78.4076 45.8333 77.3742 47.9C76.3742 50 74.8242 51.6667 72.7242 52.9C70.6576 54.1333 68.0742 54.75 64.9742 54.75C60.8409 54.75 57.4909 53.7667 54.9242 51.8C52.3576 49.8667 50.8909 47.2333 50.5242 43.9H58.9742C59.2409 44.9667 59.8742 45.8 60.8742 46.4C61.8742 47.0333 63.1076 47.35 64.5742 47.35C66.3409 47.35 67.7409 46.8333 68.7742 45.8C69.8409 44.8 70.3742 43.1833 70.3742 40.95V37C69.5409 38.3 68.3909 39.3667 66.9242 40.2C65.4576 41 63.7409 41.4 61.7742 41.4C59.4742 41.4 57.3909 40.8167 55.5242 39.65C53.6576 38.45 52.1742 36.7667 51.0742 34.6C50.0076 32.4 49.4742 29.8667 49.4742 27C49.4742 24.1333 50.0076 21.6167 51.0742 19.45C52.1742 17.2833 53.6576 15.6167 55.5242 14.45C57.3909 13.2833 59.4742 12.7 61.7742 12.7ZM70.3742 27.05C70.3742 24.9167 69.7742 23.2333 68.5742 22C67.4076 20.7667 65.9742 20.15 64.2742 20.15C62.5742 20.15 61.1242 20.7667 59.9242 22C58.7576 23.2 58.1742 24.8667 58.1742 27C58.1742 29.1333 58.7576 30.8333 59.9242 32.1C61.1242 33.3333 62.5742 33.95 64.2742 33.95C65.9742 33.95 67.4076 33.3333 68.5742 32.1C69.7742 30.8667 70.3742 29.1833 70.3742 27.05ZM89.4098 10.2C87.9098 10.2 86.6764 9.76666 85.7098 8.9C84.7764 8 84.3098 6.9 84.3098 5.6C84.3098 4.26667 84.7764 3.16666 85.7098 2.3C86.6764 1.4 87.9098 0.949997 89.4098 0.949997C90.8764 0.949997 92.0764 1.4 93.0098 2.3C93.9764 3.16666 94.4598 4.26667 94.4598 5.6C94.4598 6.9 93.9764 8 93.0098 8.9C92.0764 9.76666 90.8764 10.2 89.4098 10.2ZM93.6598 13.1V41H85.1098V13.1H93.6598ZM115.406 33.75V41H111.056C107.956 41 105.539 40.25 103.806 38.75C102.073 37.2167 101.206 34.7333 101.206 31.3V20.2H97.8059V13.1H101.206V6.3H109.756V13.1H115.356V20.2H109.756V31.4C109.756 32.2333 109.956 32.8333 110.356 33.2C110.756 33.5667 111.423 33.75 112.356 33.75H115.406ZM118.468 27C118.468 24.1333 119.002 21.6167 120.068 19.45C121.168 17.2833 122.652 15.6167 124.518 14.45C126.385 13.2833 128.468 12.7 130.768 12.7C132.735 12.7 134.452 13.1 135.918 13.9C137.418 14.7 138.568 15.75 139.368 17.05V13.1H147.918V41H139.368V37.05C138.535 38.35 137.368 39.4 135.868 40.2C134.402 41 132.685 41.4 130.718 41.4C128.452 41.4 126.385 40.8167 124.518 39.65C122.652 38.45 121.168 36.7667 120.068 34.6C119.002 32.4 118.468 29.8667 118.468 27ZM139.368 27.05C139.368 24.9167 138.768 23.2333 137.568 22C136.402 20.7667 134.968 20.15 133.268 20.15C131.568 20.15 130.118 20.7667 128.918 22C127.752 23.2 127.168 24.8667 127.168 27C127.168 29.1333 127.752 30.8333 128.918 32.1C130.118 33.3333 131.568 33.95 133.268 33.95C134.968 33.95 136.402 33.3333 137.568 32.1C138.768 30.8667 139.368 29.1833 139.368 27.05ZM162.654 4V41H154.104V4H162.654Z" fill="white"/>
<path d="M190.7 34.8H177.6L175.5 41H166.55L179.25 5.9H189.15L201.85 41H192.8L190.7 34.8ZM188.5 28.2L184.15 15.35L179.85 28.2H188.5ZM234.215 13.1L216.715 54.25H207.515L213.915 40.05L202.565 13.1H212.115L218.565 30.55L224.965 13.1H234.215ZM264.857 13.1V41H256.307V37.2C255.44 38.4333 254.257 39.4333 252.757 40.2C251.29 40.9333 249.657 41.3 247.857 41.3C245.724 41.3 243.84 40.8333 242.207 39.9C240.574 38.9333 239.307 37.55 238.407 35.75C237.507 33.95 237.057 31.8333 237.057 29.4V13.1H245.557V28.25C245.557 30.1167 246.04 31.5667 247.007 32.6C247.974 33.6333 249.274 34.15 250.907 34.15C252.574 34.15 253.89 33.6333 254.857 32.6C255.824 31.5667 256.307 30.1167 256.307 28.25V13.1H264.857ZM279.548 17.75C280.548 16.2167 281.798 15.0167 283.298 14.15C284.798 13.25 286.465 12.8 288.298 12.8V21.85H285.948C283.815 21.85 282.215 22.3167 281.148 23.25C280.082 24.15 279.548 25.75 279.548 28.05V41H270.998V13.1H279.548V17.75ZM304.935 33L310.985 13.1H320.085L310.185 41H299.635L289.735 13.1H298.885L304.935 33ZM349.984 26.6C349.984 27.4 349.934 28.2333 349.834 29.1H330.484C330.617 30.8333 331.167 32.1667 332.134 33.1C333.134 34 334.351 34.45 335.784 34.45C337.917 34.45 339.401 33.55 340.234 31.75H349.334C348.867 33.5833 348.017 35.2333 346.784 36.7C345.584 38.1667 344.067 39.3167 342.234 40.15C340.401 40.9833 338.351 41.4 336.084 41.4C333.351 41.4 330.917 40.8167 328.784 39.65C326.651 38.4833 324.984 36.8167 323.784 34.65C322.584 32.4833 321.984 29.95 321.984 27.05C321.984 24.15 322.567 21.6167 323.734 19.45C324.934 17.2833 326.601 15.6167 328.734 14.45C330.867 13.2833 333.317 12.7 336.084 12.7C338.784 12.7 341.184 13.2667 343.284 14.4C345.384 15.5333 347.017 17.15 348.184 19.25C349.384 21.35 349.984 23.8 349.984 26.6ZM341.234 24.35C341.234 22.8833 340.734 21.7167 339.734 20.85C338.734 19.9833 337.484 19.55 335.984 19.55C334.551 19.55 333.334 19.9667 332.334 20.8C331.367 21.6333 330.767 22.8167 330.534 24.35H341.234ZM352.795 27C352.795 24.1333 353.328 21.6167 354.395 19.45C355.495 17.2833 356.978 15.6167 358.845 14.45C360.711 13.2833 362.795 12.7 365.095 12.7C366.928 12.7 368.595 13.0833 370.095 13.85C371.628 14.6167 372.828 15.65 373.695 16.95V4H382.245V41H373.695V37C372.895 38.3333 371.745 39.4 370.245 40.2C368.778 41 367.061 41.4 365.095 41.4C362.795 41.4 360.711 40.8167 358.845 39.65C356.978 38.45 355.495 36.7667 354.395 34.6C353.328 32.4 352.795 29.8667 352.795 27ZM373.695 27.05C373.695 24.9167 373.095 23.2333 371.895 22C370.728 20.7667 369.295 20.15 367.595 20.15C365.895 20.15 364.445 20.7667 363.245 22C362.078 23.2 361.495 24.8667 361.495 27C361.495 29.1333 362.078 30.8333 363.245 32.1C364.445 33.3333 365.895 33.95 367.595 33.95C369.295 33.95 370.728 33.3333 371.895 32.1C373.095 30.8667 373.695 29.1833 373.695 27.05Z" fill="#00FFFA"/>
</svg>
